<svg width="210" height="334" viewBox="0 0 210 334" fill="none" xmlns="http://www.w3.org/2000/svg">
<path fill-rule="evenodd" clip-rule="evenodd" d="M23.9154 271.372C58.0181 305.475 113.309 305.475 147.412 271.372C181.515 237.27 181.515 181.978 147.412 147.876C139.223 139.687 129.813 133.464 119.768 129.208L5.24813 243.728C9.50431 253.773 15.7267 263.184 23.9154 271.372Z" fill="#4F95FF" fill-opacity="0.5"/>
<path fill-rule="evenodd" clip-rule="evenodd" d="M147.412 185.45C181.515 151.347 181.515 96.0558 147.412 61.9531C113.31 27.8504 58.0182 27.8504 23.9156 61.9531C15.7269 70.1418 9.50447 79.5521 5.24829 89.5974L119.768 204.117C129.813 199.861 139.224 193.639 147.412 185.45Z" fill="#4F95FF" fill-opacity="0.5"/>
<rect x="50.5986" y="138.773" width="111.08" height="52.8" fill="#4F95FF" fill-opacity="0.5"/>
</svg>
