<svg width="247" height="333" viewBox="0 0 247 333" fill="none" xmlns="http://www.w3.org/2000/svg">
<path fill-rule="evenodd" clip-rule="evenodd" d="M42.9554 264.926C80.4457 302.417 141.23 302.417 178.72 264.926C216.21 227.436 216.21 166.652 178.72 129.162C169.718 120.16 159.373 113.319 148.33 108.64L22.4338 234.536C27.1128 245.579 33.9533 255.924 42.9554 264.926Z" fill="#FF4DFB" fill-opacity="0.5"/>
<path fill-rule="evenodd" clip-rule="evenodd" d="M179.209 60.2613C146.218 27.2698 92.7279 27.2698 59.7364 60.2613C26.7449 93.2528 26.7449 146.743 59.7364 179.734C67.6582 187.656 76.7618 193.675 86.4797 197.793L197.268 87.0046C193.151 77.2867 187.131 68.1831 179.209 60.2613ZM179.279 179.664L179.139 179.804C179.162 179.781 179.186 179.758 179.209 179.734C179.233 179.711 179.256 179.687 179.279 179.664Z" fill="#FF4DFB" fill-opacity="0.5"/>
</svg>
