<svg width="3179" height="334" viewBox="0 0 3179 334" fill="none" xmlns="http://www.w3.org/2000/svg">
<circle cx="2095.04" cy="167.001" r="128" fill="#4F95FF" fill-opacity="0.5"/>
<path fill-rule="evenodd" clip-rule="evenodd" d="M43.5553 265.261C81.0457 302.751 141.829 302.751 179.32 265.261C216.81 227.77 216.81 166.986 179.32 129.496C170.318 120.494 159.973 113.654 148.93 108.975L23.0338 234.87C27.7128 245.914 34.5533 256.259 43.5553 265.261Z" fill="#FF4DFB" fill-opacity="0.5"/>
<path fill-rule="evenodd" clip-rule="evenodd" d="M179.809 60.5955C146.818 27.604 93.3279 27.604 60.3364 60.5955C27.3449 93.587 27.3449 147.077 60.3364 180.068C68.2582 187.99 77.3618 194.01 87.0797 198.127L197.868 87.3388C193.751 77.6209 187.731 68.5173 179.809 60.5955ZM179.879 179.998L179.739 180.139C179.762 180.115 179.786 180.092 179.809 180.068C179.833 180.045 179.856 180.021 179.879 179.998Z" fill="#47FFBE" fill-opacity="0.5"/>
<path fill-rule="evenodd" clip-rule="evenodd" d="M2771.95 265.067C2809.44 302.558 2870.22 302.558 2907.71 265.068C2945.2 227.577 2945.2 166.793 2907.71 129.303C2898.71 120.301 2888.37 113.46 2877.32 108.782L2751.43 234.677C2756.11 245.72 2762.95 256.065 2771.95 265.067Z" fill="#FF4DFB" fill-opacity="0.5"/>
<path fill-rule="evenodd" clip-rule="evenodd" d="M2908.2 60.4024C2875.21 27.4109 2821.72 27.4109 2788.73 60.4024C2755.74 93.3939 2755.74 146.884 2788.73 179.875C2796.65 187.797 2805.76 193.817 2815.47 197.934L2926.26 87.1457C2922.15 77.4278 2916.13 68.3242 2908.2 60.4024ZM2908.27 179.805L2908.13 179.945C2908.16 179.922 2908.18 179.899 2908.2 179.875C2908.23 179.852 2908.25 179.828 2908.27 179.805Z" fill="#47FFBE" fill-opacity="0.5"/>
<rect opacity="0.66" x="526.318" y="38.5017" width="168.3" height="52.8" fill="#4F95FF" fill-opacity="0.5"/>
<rect opacity="0.66" x="526.507" y="241.701" width="168.3" height="52.8" fill="#FF4DFB" fill-opacity="0.5"/>
<rect opacity="0.66" x="526.318" y="139.602" width="111.08" height="52.8" fill="#47FFBE" fill-opacity="0.5"/>
<rect x="526.507" y="38.5012" width="80" height="256" fill="#FF4DFB" fill-opacity="0.5"/>
<rect opacity="0.66" x="729.363" y="39.0015" width="168.3" height="52.8" fill="#FF4DFB" fill-opacity="0.5"/>
<rect opacity="0.66" x="729.552" y="242.201" width="168.3" height="52.8" fill="#47FFBE" fill-opacity="0.5"/>
<rect opacity="0.66" x="729.363" y="140.101" width="111.08" height="52.8" fill="#4F95FF" fill-opacity="0.5"/>
<rect x="729.552" y="39.001" width="80" height="256" fill="#47FFBE" fill-opacity="0.5"/>
<rect opacity="0.66" x="2540.87" y="40.2549" width="168.3" height="52.8" fill="#FF4DFB" fill-opacity="0.5"/>
<rect opacity="0.66" x="2541.06" y="243.454" width="168.3" height="52.8" fill="#47FFBE" fill-opacity="0.5"/>
<rect opacity="0.66" x="2540.87" y="141.355" width="111.08" height="52.8" fill="#4F95FF" fill-opacity="0.5"/>
<rect x="2541.06" y="40.2544" width="80" height="256" fill="#4F95FF" fill-opacity="0.5"/>
<rect x="2323.09" y="39.001" width="80" height="256" fill="#FF4DFB" fill-opacity="0.5"/>
<rect opacity="0.66" x="2323.09" y="39.001" width="168.3" height="52.8" fill="#4F95FF" fill-opacity="0.5"/>
<rect opacity="0.66" x="2234.3" y="39.001" width="168.3" height="52.8" fill="#47FFBE" fill-opacity="0.5"/>
<rect x="1572.34" y="166.808" width="128" height="128" fill="#FF4DFB" fill-opacity="0.5"/>
<path fill-rule="evenodd" clip-rule="evenodd" d="M1449.7 125.625C1427.64 192.786 1464.19 265.118 1531.35 287.184C1559.68 296.49 1588.92 295.37 1614.92 285.927L1677.8 94.5529C1662.47 71.5263 1639.59 53.2814 1611.26 43.9758C1544.1 21.9094 1471.77 58.4651 1449.7 125.625Z" fill="#47FFBE" fill-opacity="0.5"/>
<rect x="2969.85" y="40.0007" width="80" height="255" fill="#FF4DFB" fill-opacity="0.5"/>
<path fill-rule="evenodd" clip-rule="evenodd" d="M2969.85 103.738L3050.03 208.872L3178.64 40.2544L2969.85 40.2544V103.738Z" fill="#4F95FF" fill-opacity="0.5"/>
<path fill-rule="evenodd" clip-rule="evenodd" d="M2969.85 294.748H3178.27L3049.66 126.13L2969.85 230.777V294.748Z" fill="#47FFBE" fill-opacity="0.5"/>
<rect x="932.407" y="39.001" width="80" height="256" fill="#4F95FF" fill-opacity="0.5"/>
<path fill-rule="evenodd" clip-rule="evenodd" d="M932.407 39.2675L932.633 39.001L1149.63 295.001L932.407 295.001L932.407 39.2675Z" fill="#FF4DFB" fill-opacity="0.5"/>
<path fill-rule="evenodd" clip-rule="evenodd" d="M1017.81 215.001C1067.85 215.001 1108.41 175.602 1108.41 127.001C1108.41 78.3999 1067.85 39.001 1017.81 39.001C978.403 39.001 944.87 63.4446 932.407 97.5754L932.407 156.427C944.87 190.557 978.403 215.001 1017.81 215.001Z" fill="#47FFBE" fill-opacity="0.5"/>
<rect x="1749.82" y="38.0015" width="80" height="256" fill="#4F95FF" fill-opacity="0.5"/>
<path fill-rule="evenodd" clip-rule="evenodd" d="M1749.82 38.268L1750.04 38.0015L1967.04 294.001L1749.82 294.001L1749.82 38.268Z" fill="#FF4DFB" fill-opacity="0.5"/>
<path fill-rule="evenodd" clip-rule="evenodd" d="M1835.22 214.001C1885.26 214.001 1925.82 174.603 1925.82 126.001C1925.82 77.4004 1885.26 38.0015 1835.22 38.0015C1795.81 38.0015 1762.28 62.4451 1749.82 96.5759L1749.82 155.427C1762.28 189.558 1795.81 214.001 1835.22 214.001Z" fill="#47FFBE" fill-opacity="0.5"/>
<rect x="235.343" y="39" width="80" height="256" fill="#4F95FF" fill-opacity="0.5"/>
<rect x="403.643" y="39" width="80" height="256" fill="#4F95FF" fill-opacity="0.5"/>
<rect opacity="0.66" x="235.343" y="140.6" width="168.3" height="52.8" fill="#47FFBE" fill-opacity="0.5"/>
<rect opacity="0.66" x="315.343" y="140.6" width="168.3" height="52.8" fill="#FF4DFB" fill-opacity="0.5"/>
</svg>
