<svg width="2987" height="2212" viewBox="0 0 2987 2212" fill="none" xmlns="http://www.w3.org/2000/svg">
<circle cx="149.26" cy="930.992" r="128" fill="#47FFBE" fill-opacity="0.5"/>
<circle cx="1303.32" cy="2184.59" r="26.4" fill="#FF4DFB" fill-opacity="0.5"/>
<ellipse cx="940.804" cy="2082.69" rx="88" ry="128" fill="#47FFBE" fill-opacity="0.5"/>
<circle cx="1301.45" cy="162.992" r="128" fill="#FF4DFB" fill-opacity="0.5"/>
<rect x="1173.45" y="35.9922" width="105" height="256" fill="#FF4DFB" fill-opacity="0.5"/>
<path fill-rule="evenodd" clip-rule="evenodd" d="M948.767 33.4927C878.075 33.4927 820.767 90.8002 820.767 161.493C820.767 232.185 878.075 289.493 948.767 289.493C965.741 289.493 981.944 286.189 996.767 280.188L996.767 42.797C981.944 36.7968 965.742 33.4927 948.767 33.4927Z" fill="#47FFBE" fill-opacity="0.5"/>
<path fill-rule="evenodd" clip-rule="evenodd" d="M1609.35 1029.73C1646.84 1067.22 1707.62 1067.22 1745.11 1029.73C1782.6 992.241 1782.6 931.457 1745.11 893.967C1736.11 884.965 1725.77 878.125 1714.72 873.446L1588.83 999.341C1593.51 1010.38 1600.35 1020.73 1609.35 1029.73Z" fill="#FF4DFB" fill-opacity="0.5"/>
<path fill-rule="evenodd" clip-rule="evenodd" d="M1745.6 825.066C1712.61 792.075 1659.12 792.075 1626.13 825.066C1593.14 858.058 1593.14 911.548 1626.13 944.539C1634.05 952.461 1643.16 958.48 1652.87 962.598L1763.66 851.81C1759.54 842.092 1753.52 832.988 1745.6 825.066ZM1745.67 944.469L1745.53 944.609C1745.56 944.586 1745.58 944.562 1745.6 944.539C1745.63 944.516 1745.65 944.492 1745.67 944.469Z" fill="#FF4DFB" fill-opacity="0.5"/>
<rect x="484.829" y="418.568" width="80" height="256" fill="#47FFBE" fill-opacity="0.5"/>
<rect opacity="0.66" x="1992.94" y="35.9922" width="168.3" height="52.8" fill="#47FFBE" fill-opacity="0.5"/>
<rect opacity="0.66" x="1992.94" y="137.092" width="111.08" height="52.8" fill="#47FFBE" fill-opacity="0.5"/>
<rect x="1992.94" y="35.9922" width="80" height="256" fill="#47FFBE" fill-opacity="0.5"/>
<rect opacity="0.66" x="1603.22" y="34.9927" width="168.3" height="52.8" fill="#4F95FF" fill-opacity="0.5"/>
<rect opacity="0.66" x="1603.41" y="238.192" width="168.3" height="52.8" fill="#4F95FF" fill-opacity="0.5"/>
<rect opacity="0.66" x="1603.22" y="136.093" width="111.08" height="52.8" fill="#4F95FF" fill-opacity="0.5"/>
<rect x="1603.41" y="34.9922" width="80" height="256" fill="#4F95FF" fill-opacity="0.5"/>
<rect x="2029.7" y="801.472" width="80" height="256" fill="#4F95FF" fill-opacity="0.5"/>
<rect opacity="0.66" x="2029.7" y="801.472" width="168.3" height="52.8" fill="#4F95FF" fill-opacity="0.5"/>
<rect opacity="0.66" x="1940.91" y="801.472" width="168.3" height="52.8" fill="#4F95FF" fill-opacity="0.5"/>
<circle cx="548.735" cy="890.144" r="88" fill="#FF4DFB" fill-opacity="0.5"/>
<rect x="460.735" y="802.144" width="80" height="256" fill="#FF4DFB" fill-opacity="0.5"/>
<ellipse cx="534.735" cy="100.247" rx="65" ry="65.2549" fill="#4F95FF" fill-opacity="0.5"/>
<rect x="431.735" y="34.9922" width="105" height="256" fill="#4F95FF" fill-opacity="0.5"/>
<circle cx="557.735" cy="201.992" r="88" fill="#4F95FF" fill-opacity="0.5"/>
<circle cx="2837.53" cy="1740.54" r="88" fill="#FF4DFB" fill-opacity="0.5"/>
<circle cx="2837.53" cy="1635.44" r="66" fill="#FF4DFB" fill-opacity="0.5"/>
<rect x="2501" y="801.472" width="80" height="256" fill="#47FFBE" fill-opacity="0.5"/>
<path fill-rule="evenodd" clip-rule="evenodd" d="M2582 929.472V929.974H2582C2581.72 1000.44 2524.52 1057.47 2454 1057.47C2383.47 1057.47 2326.27 1000.44 2326 929.974H2326V929.472V801.472H2454H2582V929.472Z" fill="#47FFBE" fill-opacity="0.5"/>
<path fill-rule="evenodd" clip-rule="evenodd" d="M943.67 1314.49V1314.99H943.67C943.49 1385.18 905.503 1441.99 858.67 1441.99C811.837 1441.99 773.851 1385.18 773.671 1314.99H773.67V1314.49V1186.99H858.67H943.67V1314.49Z" fill="#4F95FF" fill-opacity="0.5"/>
<rect x="1007.34" y="1186.99" width="53.3333" height="256" fill="#4F95FF" fill-opacity="0.5"/>
<path fill-rule="evenodd" clip-rule="evenodd" d="M1060.67 1314.49V1314.99H1060.67C1060.49 1385.18 1022.5 1441.99 975.67 1441.99C928.837 1441.99 890.851 1385.18 890.671 1314.99H890.67V1314.49V1186.99H975.67H1060.67V1314.49Z" fill="#4F95FF" fill-opacity="0.5"/>
<rect x="2453.17" y="163.115" width="128" height="128" fill="#FF4DFB" fill-opacity="0.5"/>
<path fill-rule="evenodd" clip-rule="evenodd" d="M2330.54 121.933C2308.47 189.093 2345.03 261.426 2412.19 283.492C2440.51 292.798 2469.75 291.678 2495.75 282.234L2558.63 90.8605C2543.3 67.834 2520.42 49.589 2492.1 40.2834C2424.94 18.217 2352.6 54.7727 2330.54 121.933Z" fill="#FF4DFB" fill-opacity="0.5"/>
<path d="M2837.53 1056.49L2708.93 800.74L2966.14 800.74L2837.53 1056.49Z" fill="#FF4DFB" fill-opacity="0.5"/>
<rect x="1645.87" y="1187.25" width="80" height="256" fill="#FF4DFB" fill-opacity="0.5"/>
<path d="M1685.87 1355.86L1557.26 1187.25L1814.47 1187.25L1685.87 1355.86Z" fill="#FF4DFB" fill-opacity="0.5"/>
<path d="M1300.6 1355.86L1171.99 1187.25L1429.2 1187.25L1300.6 1355.86Z" fill="#47FFBE" fill-opacity="0.5"/>
<path d="M1300.23 1273.12L1428.83 1441.74H1171.62L1300.23 1273.12Z" fill="#47FFBE" fill-opacity="0.5"/>
<rect x="1908.69" y="418.568" width="80" height="256" fill="#FF4DFB" fill-opacity="0.5"/>
<rect x="2131.69" y="418.568" width="80" height="256" fill="#FF4DFB" fill-opacity="0.5"/>
<path d="M2060.37 546.818L1909.05 418.568L2211.69 418.568L2060.37 546.818Z" fill="#FF4DFB" fill-opacity="0.5"/>
<path d="M149.17 33.8184L277.775 290.318L20.5656 290.318L149.17 33.8184Z" fill="#FF4DFB" fill-opacity="0.5"/>
<circle cx="917.17" cy="929.472" r="128" fill="#4F95FF" fill-opacity="0.5"/>
<path fill-rule="evenodd" clip-rule="evenodd" d="M936.557 929.605L936.67 929.472L1045.17 1057.47L936.557 1057.47L936.557 929.605Z" fill="#4F95FF" fill-opacity="0.5"/>
<rect x="1193.43" y="418.568" width="80" height="256" fill="#4F95FF" fill-opacity="0.5"/>
<path fill-rule="evenodd" clip-rule="evenodd" d="M1193.43 482.306L1273.61 587.439L1402.22 418.822H1193.43V482.306Z" fill="#4F95FF" fill-opacity="0.5"/>
<path fill-rule="evenodd" clip-rule="evenodd" d="M1193.43 673.314H1401.85L1273.24 504.697L1193.43 609.344V673.314Z" fill="#4F95FF" fill-opacity="0.5"/>
<rect x="2330.18" y="418.568" width="80" height="256" fill="#4F95FF" fill-opacity="0.5"/>
<rect x="2480.18" y="418.568" width="80" height="256" fill="#4F95FF" fill-opacity="0.5"/>
<path fill-rule="evenodd" clip-rule="evenodd" d="M2480.41 674.568L2560.37 674.568L2560.37 418.568L2330.18 418.568L2480.41 674.568Z" fill="#4F95FF" fill-opacity="0.5"/>
<rect x="2196.17" y="1187" width="80" height="255" transform="rotate(90 2196.17 1187)" fill="#4F95FF" fill-opacity="0.5"/>
<rect x="2196.17" y="1362.81" width="80" height="255" transform="rotate(90 2196.17 1362.81)" fill="#4F95FF" fill-opacity="0.5"/>
<path fill-rule="evenodd" clip-rule="evenodd" d="M1941.17 1363.03L1941.17 1443L2196.17 1443L2196.17 1186.99L1941.17 1363.03Z" fill="#4F95FF" fill-opacity="0.5"/>
<rect x="1200.04" y="801.472" width="80" height="256" fill="#47FFBE" fill-opacity="0.5"/>
<path fill-rule="evenodd" clip-rule="evenodd" d="M1200.04 801.739L1200.27 801.472L1417.27 1057.47L1200.04 1057.47L1200.04 801.739Z" fill="#47FFBE" fill-opacity="0.5"/>
<path fill-rule="evenodd" clip-rule="evenodd" d="M1283 977.472C1331.6 977.472 1371 938.073 1371 889.472C1371 840.871 1331.6 801.472 1283 801.472C1244.72 801.472 1212.15 825.916 1200.04 860.047V918.897C1212.15 953.028 1244.72 977.472 1283 977.472Z" fill="#47FFBE" fill-opacity="0.5"/>
<circle cx="2068.23" cy="1738.99" r="87.9995" fill="#4F95FF" fill-opacity="0.5"/>
<path fill-rule="evenodd" clip-rule="evenodd" d="M2004.36 1679.61L2004.23 1679.49L2132.23 1570.99L2132.23 1679.61L2004.36 1679.61Z" fill="#4F95FF" fill-opacity="0.5"/>
<circle cx="2309.92" cy="2003.55" r="26.4" fill="#FF4DFB" fill-opacity="0.5"/>
<path fill-rule="evenodd" clip-rule="evenodd" d="M2290.76 1985.74L2290.72 1985.7L2329.12 1953.15L2329.12 1985.74L2290.76 1985.74Z" fill="#FF4DFB" fill-opacity="0.5"/>
<circle cx="2365.72" cy="2003.55" r="26.4" fill="#FF4DFB" fill-opacity="0.5"/>
<path fill-rule="evenodd" clip-rule="evenodd" d="M2346.56 1985.74L2346.52 1985.7L2384.92 1953.15L2384.92 1985.74L2346.56 1985.74Z" fill="#FF4DFB" fill-opacity="0.5"/>
<circle cx="2566.75" cy="1979.55" r="26.4" transform="rotate(-180 2566.75 1979.55)" fill="#4F95FF" fill-opacity="0.5"/>
<path fill-rule="evenodd" clip-rule="evenodd" d="M2585.91 1997.37L2585.95 1997.4L2547.55 2029.95L2547.55 1997.37L2585.91 1997.37Z" fill="#4F95FF" fill-opacity="0.5"/>
<circle cx="2622.55" cy="1979.55" r="26.4" transform="rotate(-180 2622.55 1979.55)" fill="#4F95FF" fill-opacity="0.5"/>
<path fill-rule="evenodd" clip-rule="evenodd" d="M2641.71 1997.37L2641.75 1997.4L2603.35 2029.95L2603.35 1997.37L2641.71 1997.37Z" fill="#4F95FF" fill-opacity="0.5"/>
<circle cx="551.863" cy="2042.99" r="87.9995" transform="rotate(-180 551.863 2042.99)" fill="#4F95FF" fill-opacity="0.5"/>
<path fill-rule="evenodd" clip-rule="evenodd" d="M615.73 2102.38L615.863 2102.49L487.863 2210.99L487.863 2102.38L615.73 2102.38Z" fill="#4F95FF" fill-opacity="0.5"/>
<circle cx="1667.03" cy="2185.41" r="26.4" fill="#4F95FF" fill-opacity="0.5"/>
<path fill-rule="evenodd" clip-rule="evenodd" d="M1769.27 2031.48C1769.27 1989.24 1735.03 1954.99 1692.79 1954.99C1650.54 1954.99 1616.3 1989.24 1616.3 2031.48C1616.3 2041.62 1618.27 2051.31 1621.86 2060.16L1763.71 2060.16C1767.3 2051.31 1769.27 2041.62 1769.27 2031.48Z" fill="#4F95FF" fill-opacity="0.5"/>
<path fill-rule="evenodd" clip-rule="evenodd" d="M1763.41 2060.16L1763.51 2060.25L1661.53 2146.7L1661.53 2060.16L1763.41 2060.16Z" fill="#4F95FF" fill-opacity="0.5"/>
<rect x="1609.44" y="418.568" width="80" height="256" fill="#47FFBE" fill-opacity="0.5"/>
<rect opacity="0.66" x="1609.44" y="621.768" width="168.3" height="52.8" fill="#47FFBE" fill-opacity="0.5"/>
<rect x="2712.17" y="34.9922" width="80" height="256" fill="#4F95FF" fill-opacity="0.5"/>
<rect x="2880.47" y="34.9922" width="80" height="256" fill="#4F95FF" fill-opacity="0.5"/>
<rect opacity="0.66" x="2712.17" y="136.592" width="168.3" height="52.8" fill="#4F95FF" fill-opacity="0.5"/>
<rect opacity="0.66" x="2792.17" y="136.592" width="168.3" height="52.8" fill="#4F95FF" fill-opacity="0.5"/>
<rect x="888.15" y="418.568" width="80" height="256" fill="#FF4DFB" fill-opacity="0.5"/>
<path fill-rule="evenodd" clip-rule="evenodd" d="M808.15 628.568V668.568V668.882C808.32 712.92 844.072 748.568 888.15 748.568C932.228 748.568 967.98 712.92 968.15 668.882V668.568V628.568H808.15Z" fill="#FF4DFB" fill-opacity="0.5"/>
<path fill-rule="evenodd" clip-rule="evenodd" d="M857.925 1803.01C892.028 1837.11 947.319 1837.11 981.422 1803.01C1015.52 1768.91 1015.52 1713.62 981.422 1679.51C973.233 1671.33 963.823 1665.1 953.778 1660.85L839.258 1775.37C843.514 1785.41 849.736 1794.82 857.925 1803.01Z" fill="#4F95FF" fill-opacity="0.5"/>
<path fill-rule="evenodd" clip-rule="evenodd" d="M981.422 1717.09C1015.52 1682.99 1015.52 1627.69 981.422 1593.59C947.319 1559.49 892.028 1559.49 857.925 1593.59C849.737 1601.78 843.514 1611.19 839.258 1621.24L953.778 1735.76C963.823 1731.5 973.233 1725.28 981.422 1717.09Z" fill="#4F95FF" fill-opacity="0.5"/>
<rect x="884.608" y="1670.41" width="111.08" height="52.8" fill="#4F95FF" fill-opacity="0.5"/>
<rect x="118.405" y="1570.99" width="80" height="256" fill="#47FFBE" fill-opacity="0.5"/>
<rect x="86.1147" y="1570.11" width="111.08" height="52.8" fill="#47FFBE" fill-opacity="0.5"/>
<rect x="1296.73" y="1570.99" width="80" height="256" fill="#47FFBE" fill-opacity="0.5"/>
<rect x="1261.23" y="1614.31" width="111.08" height="52.8" transform="rotate(90 1261.23 1614.31)" fill="#47FFBE" fill-opacity="0.5"/>
<rect x="1208.43" y="1672.59" width="168.3" height="52.8" fill="#47FFBE" fill-opacity="0.5"/>
<path fill-rule="evenodd" clip-rule="evenodd" d="M616.164 1712.62C642.398 1667.18 626.83 1609.08 581.392 1582.85C535.954 1556.62 477.853 1572.18 451.619 1617.62C445.32 1628.53 441.431 1640.17 439.787 1651.93L592.371 1740.02C601.728 1732.72 609.865 1723.53 616.164 1712.62Z" fill="#FF4DFB" fill-opacity="0.5"/>
<rect x="447.579" y="1774.19" width="168.3" height="52.8" fill="#FF4DFB" fill-opacity="0.5"/>
<path fill-rule="evenodd" clip-rule="evenodd" d="M598.352 1596.69L598.195 1596.51L447.579 1774.19V1826.99H598.347V1774.19V1766.33L598.352 1766.33L598.352 1596.69Z" fill="#FF4DFB" fill-opacity="0.5"/>
<path fill-rule="evenodd" clip-rule="evenodd" d="M1767.79 1685.69C1794.02 1731.12 1778.46 1789.23 1733.02 1815.46C1687.58 1841.69 1629.48 1826.12 1603.25 1780.69C1596.95 1769.78 1593.06 1758.14 1591.41 1746.38L1744 1658.29C1753.36 1665.59 1761.49 1674.78 1767.79 1685.69Z" fill="#FF4DFB" fill-opacity="0.5"/>
<rect x="1769.3" y="1623.79" width="168.3" height="52.8" transform="rotate(180 1769.3 1623.79)" fill="#FF4DFB" fill-opacity="0.5"/>
<path fill-rule="evenodd" clip-rule="evenodd" d="M1751.77 1801.29L1751.62 1801.48L1601 1623.79L1751.77 1623.79L1601 1623.79L1601 1570.99L1751.77 1570.99L1751.77 1623.79L1751.77 1631.65L1751.77 1631.65L1751.77 1801.29Z" fill="#FF4DFB" fill-opacity="0.5"/>
<path fill-rule="evenodd" clip-rule="evenodd" d="M2560.04 1826.73L2559.81 1826.99L2342.81 1570.99H2560.04V1826.73Z" fill="#47FFBE" fill-opacity="0.5"/>
<rect x="2413.7" y="1654.09" width="168.3" height="52.8" fill="#47FFBE" fill-opacity="0.5"/>
<circle cx="2073.02" cy="2184.29" r="26.4" fill="#47FFBE" fill-opacity="0.5"/>
<rect x="2099.42" y="1954.69" width="168.3" height="52.8" transform="rotate(90 2099.42 1954.69)" fill="#47FFBE" fill-opacity="0.5"/>
</svg>
